<svg width="23" height="24" viewBox="0 0 23 24" fill="none" xmlns="http://www.w3.org/2000/svg">
<path d="M16.875 12.75C13.7684 12.75 11.25 15.2684 11.25 18.375C11.25 21.4815 13.7684 24 16.875 24C19.9816 24 22.5 21.4815 22.5 18.375C22.5 15.2684 19.9816 12.75 16.875 12.75ZM20.1846 17.4659L16.669 20.9815C16.5316 21.1188 16.3517 21.1875 16.1719 21.1875C15.992 21.1875 15.8121 21.1188 15.6748 20.9815L13.5654 18.8721C13.2907 18.5975 13.2907 18.1525 13.5654 17.8778C13.84 17.6032 14.285 17.6032 14.5597 17.8778L16.1719 19.4901L19.1904 16.4716C19.465 16.197 19.91 16.197 20.1847 16.4716C20.4593 16.7462 20.4593 17.1912 20.1846 17.4659Z" fill="#FDBD3D"/>
<path d="M16.875 11.3438C17.2537 11.3438 17.6183 11.3977 17.9809 11.4556C18.161 10.7346 18.2812 9.94898 18.2812 9.1875C18.2812 4.1475 14.1806 0 9.14062 0C4.10063 0 0 4.1475 0 9.1875C0 11.1822 0.631031 13.1242 1.82442 14.7138L8.57827 23.7185C8.71078 23.8956 8.91952 24 9.14062 24C9.36173 24 9.57047 23.8956 9.70298 23.7185L10.9278 22.0854C10.2515 21.0055 9.84375 19.7404 9.84375 18.375C9.84375 17.3076 10.1011 16.306 10.5287 15.3989C10.0807 15.4995 9.61894 15.5625 9.14062 15.5625C5.64567 15.5625 2.8125 12.6825 2.8125 9.1875C2.8125 5.69255 5.64567 2.8125 9.14062 2.8125C12.6356 2.8125 15.4688 5.69255 15.4688 9.1875C15.4688 10.0373 15.2954 10.8921 14.9916 11.6325C15.595 11.4633 16.2184 11.3438 16.875 11.3438Z" fill="#FDBD3D"/>
</svg>
