<svg width="24" height="24" viewBox="0 0 24 24" fill="none" xmlns="http://www.w3.org/2000/svg">
<path d="M0 10.5449V16.7561C0 18.5448 1.44995 19.9947 3.23859 19.9947H20.7614C22.5501 19.9947 24 18.5448 24 16.7561V10.5449C24 10.2339 23.7478 9.98169 23.4368 9.98169H0.563233C0.252187 9.98169 0 10.2339 0 10.5449ZM5.99219 14.4875H4.49023C3.94587 14.4875 3.50457 14.0463 3.50457 13.5019C3.50457 12.9575 3.94587 12.5162 4.49023 12.5162H5.99219C6.53655 12.5162 6.97784 12.9575 6.97784 13.5019C6.97784 14.0463 6.53655 14.4875 5.99219 14.4875Z" fill="#FDBD3D"/>
<path d="M24 7.44721V7.24384C24 5.4552 22.5501 4.00525 20.7614 4.00525H3.23859C1.44995 4.00525 0 5.4552 0 7.24384V7.44721C0 7.75826 0.252187 8.01044 0.563233 8.01044H23.4368C23.7478 8.01044 24 7.75826 24 7.44721Z" fill="#FDBD3D"/>
</svg>
