<svg width="16" height="22" viewBox="0 0 16 22" fill="none" xmlns="http://www.w3.org/2000/svg">
<path fill-rule="evenodd" clip-rule="evenodd" d="M15.3243 9.71173L9.76462 8.48807L12.2257 0.944007C12.2802 0.777407 12.263 0.600475 12.1771 0.443056C12.0912 0.285637 11.9419 0.157366 11.7542 0.0798799C11.5666 0.00239392 11.3521 -0.0195645 11.1471 0.0177082C10.942 0.0549809 10.7588 0.149204 10.6285 0.284483L0.196869 11.0987C0.103073 11.1961 0.0402051 11.3111 0.0139102 11.4335C-0.0123847 11.5558 -0.00128265 11.6815 0.0462188 11.7994C0.0937203 11.9174 0.176135 12.0237 0.286061 12.109C0.395987 12.1943 0.529982 12.2559 0.676017 12.2881L6.23565 13.5118L3.77451 21.0559C3.72001 21.2225 3.73714 21.3995 3.82302 21.5569C3.9089 21.7143 4.05827 21.8426 4.24593 21.9201C4.43358 21.9976 4.64804 22.0196 4.85312 21.9823C5.0582 21.945 5.24135 21.8508 5.37167 21.7155L15.8034 10.9012C15.8971 10.8038 15.9599 10.6888 15.9861 10.5665C16.0124 10.4442 16.0013 10.3185 15.9538 10.2006C15.9063 10.0827 15.8239 9.97632 15.714 9.89103C15.6042 9.80573 15.4702 9.74404 15.3243 9.71173Z" fill="#FDBD3D"/>
</svg>
