<svg width="37" height="37" viewBox="0 0 37 37" fill="none" xmlns="http://www.w3.org/2000/svg">
<path fill-rule="evenodd" clip-rule="evenodd" d="M34.7933 27.3323H27.4275C27.9069 24.9921 28.1916 22.452 28.2639 19.8212H37C36.8071 22.5258 36.0305 25.0712 34.7933 27.3323ZM23.9962 36.1708C24.6157 35.2832 25.1869 34.2343 25.6994 33.0331C26.1044 32.0839 26.4646 31.0596 26.7791 29.9752H33.0382C30.7428 32.862 27.6037 35.0522 23.9962 36.1708ZM3.95049 29.9752H10.2217C10.5361 31.0595 10.8963 32.0839 11.3014 33.0331C11.8155 34.2382 12.3893 35.2903 13.0105 36.1794C10.1627 35.3034 7.55293 33.7434 5.38522 31.5816C4.87271 31.0701 4.39497 30.5332 3.95049 29.9752ZM13.0045 0.829173C12.385 1.71674 11.8139 2.76567 11.3014 3.96693C10.8963 4.91607 10.5361 5.94043 10.2216 7.02484H3.96259C6.25795 4.13835 9.39707 1.94784 13.0045 0.829173ZM33.0382 7.02477H26.7791C26.4647 5.94043 26.1044 4.91599 25.6994 3.96686C25.1869 2.76559 24.6157 1.71674 23.9962 0.8291C27.6037 1.94784 30.7428 4.13835 33.0382 7.02477ZM28.2639 17.1783C28.1916 14.5479 27.9069 12.0078 27.4275 9.66773H34.7933C36.0305 11.9288 36.807 14.4743 37 17.1783H28.2639ZM24.7224 9.66773C25.2142 11.8851 25.5345 14.4143 25.6134 17.1783H11.3874C11.4663 14.4143 11.7866 11.8851 12.2783 9.66773H24.7224ZM18.5 0C16.5144 0 14.3956 2.63436 12.9881 7.02477H24.0126C22.6052 2.63436 20.4864 0 18.5 0ZM2.20741 9.66773H9.5732C9.09394 12.0078 8.80914 14.5479 8.73684 17.1783H0.00079695C0.193732 14.4742 0.970325 11.9288 2.20741 9.66773ZM0 19.8212H8.73691C8.80914 22.452 9.09394 24.9921 9.57327 27.3323H2.19495C0.937867 25.0319 0.187066 22.4821 0 19.8212ZM12.2783 27.3323C11.7866 25.1149 11.4663 22.5861 11.3874 19.8212H25.6134C25.5345 22.5861 25.2142 25.1148 24.7224 27.3323H12.2783ZM18.5 37C20.4864 37 22.6052 34.3656 24.0126 29.9752H12.9881C14.3956 34.3656 16.5144 37 18.5 37Z" fill="#FDBD3D"/>
</svg>
