<svg width="40" height="40" viewBox="0 0 40 40" fill="none" xmlns="http://www.w3.org/2000/svg">
<path d="M9.37402 2.51489C8.47123 2.5146 7.57722 2.6922 6.7431 3.03755C5.90897 3.3829 5.15107 3.88923 4.5127 4.5276C3.87433 5.16597 3.368 5.92387 3.02266 6.758C2.67731 7.59213 2.49971 8.48613 2.5 9.38892C2.5 9.55469 2.56585 9.71367 2.68306 9.83088C2.80028 9.9481 2.95926 10.0139 3.12502 10.0139C3.29079 10.0139 3.44977 9.9481 3.56698 9.83088C3.68419 9.71367 3.75004 9.55469 3.75004 9.38892C3.74971 8.65028 3.89495 7.91881 4.17746 7.23633C4.45998 6.55384 4.87422 5.93373 5.39652 5.41143C5.91883 4.88913 6.53894 4.47488 7.22142 4.19237C7.9039 3.90986 8.63537 3.76462 9.37402 3.76495C9.53979 3.76495 9.69876 3.6991 9.81598 3.58188C9.93319 3.46467 9.99904 3.30569 9.99904 3.13993C9.99904 2.97416 9.93319 2.81518 9.81598 2.69797C9.69876 2.58076 9.53979 2.51489 9.37402 2.51489Z" fill="#FDBD3D"/>
<path d="M9.37699 5.01636H9.35685C8.19919 5.01963 7.09017 5.48234 6.27346 6.30283C5.45675 7.12331 4.99916 8.23445 5.00123 9.39212C5.00208 9.55734 5.0683 9.7155 5.18541 9.83205C5.30252 9.94859 5.46101 10.014 5.62623 10.0141H5.6293C5.79506 10.0133 5.95371 9.94664 6.07035 9.82886C6.18699 9.71108 6.25207 9.55178 6.25126 9.38602C6.25073 8.56091 6.57731 7.76924 7.15943 7.18449C7.74155 6.59973 8.53174 6.26959 9.35685 6.2664C9.36254 6.26609 9.36824 6.26609 9.37393 6.2664C9.5397 6.26681 9.69884 6.20134 9.81634 6.08441C9.93384 5.96749 10.0001 5.80867 10.0005 5.6429C10.0009 5.47714 9.93542 5.318 9.81849 5.2005C9.70157 5.083 9.54276 5.01676 9.37699 5.01636Z" fill="#FDBD3D"/>
<path d="M9.38369 7.51816C9.1361 7.51564 8.8905 7.56252 8.66125 7.65605C8.432 7.74958 8.2237 7.88789 8.04854 8.06288C7.87338 8.23787 7.73487 8.44604 7.64111 8.6752C7.54736 8.90436 7.50024 9.14991 7.50252 9.3975C7.50482 9.56176 7.57168 9.71851 7.68863 9.83387C7.80559 9.94923 7.96325 10.0139 8.12752 10.014H8.13606C8.30179 10.0116 8.4598 9.94354 8.57539 9.82475C8.69098 9.70596 8.75469 9.54615 8.75254 9.38041C8.7524 9.21958 8.8156 9.06517 8.92847 8.95059C9.04133 8.83601 9.19478 8.77049 9.35559 8.76821H9.3739C9.53878 8.76813 9.69695 8.7029 9.81396 8.58675C9.93097 8.47059 9.99735 8.3129 9.99864 8.14803C9.99993 7.98316 9.93602 7.82445 9.82084 7.70648C9.70566 7.58851 9.54855 7.52082 9.38369 7.51816Z" fill="#FDBD3D"/>
<path d="M35.4876 4.52794C34.8506 3.88758 34.093 3.37993 33.2585 3.0344C32.424 2.68886 31.5292 2.51229 30.626 2.51492C30.4602 2.51492 30.3013 2.58077 30.184 2.69799C30.0668 2.8152 30.001 2.97418 30.001 3.13994C30.001 3.30571 30.0668 3.46469 30.184 3.5819C30.3013 3.69911 30.4602 3.76496 30.626 3.76497C31.3646 3.76463 32.0961 3.90987 32.7786 4.19239C33.4611 4.4749 34.0812 4.88914 34.6035 5.41145C35.1258 5.93375 35.54 6.55386 35.8226 7.23634C36.1051 7.91883 36.2503 8.6503 36.25 9.38894C36.25 9.55471 36.3158 9.71368 36.433 9.8309C36.5503 9.94811 36.7092 10.014 36.875 10.014C37.0408 10.014 37.1997 9.94811 37.317 9.8309C37.4342 9.71368 37.5 9.55471 37.5 9.38894C37.5027 8.48587 37.3262 7.59125 36.9807 6.75686C36.6353 5.92246 36.1278 5.16487 35.4876 4.52794Z" fill="#FDBD3D"/>
<path d="M30.6431 5.01636H30.623C30.5409 5.01656 30.4597 5.03292 30.3839 5.06452C30.3082 5.09611 30.2394 5.14232 30.1815 5.2005C30.1236 5.25868 30.0777 5.3277 30.0465 5.4036C30.0153 5.47951 29.9993 5.56083 29.9995 5.6429C29.9997 5.72498 30.0161 5.80622 30.0477 5.88197C30.0793 5.95773 30.1255 6.02652 30.1837 6.08441C30.2418 6.14231 30.3109 6.18818 30.3868 6.21941C30.4627 6.25063 30.544 6.2666 30.6261 6.2664H30.6431C31.4683 6.26959 32.2584 6.59973 32.8406 7.18449C33.4227 7.76924 33.7493 8.56091 33.7487 9.38602C33.7479 9.55178 33.813 9.71108 33.9296 9.82886C34.0463 9.94664 34.2049 10.0133 34.3707 10.0141H34.3737C34.539 10.014 34.6975 9.94859 34.8146 9.83205C34.9317 9.7155 34.9979 9.55734 34.9987 9.39212C35.0008 8.23445 34.5432 7.12331 33.7265 6.30283C32.9098 5.48234 31.8008 5.01963 30.6431 5.01636Z" fill="#FDBD3D"/>
<path d="M30.6358 8.76826C30.7955 8.77758 30.9475 8.84036 31.0673 8.94649C31.125 9.00295 31.1707 9.0705 31.2017 9.14508C31.2326 9.21966 31.2482 9.29973 31.2474 9.38047C31.2452 9.5462 31.3089 9.70601 31.4245 9.8248C31.5401 9.94359 31.6981 10.0117 31.8638 10.014H31.8724C32.0366 10.0139 32.1942 9.94915 32.3112 9.83382C32.4281 9.71848 32.495 9.56178 32.4974 9.39755C32.5009 9.14988 32.4544 8.90404 32.3606 8.67477C32.2669 8.4455 32.1278 8.23752 31.9517 8.06328C31.779 7.88486 31.5711 7.74428 31.3412 7.65045C31.1113 7.55662 30.8644 7.51159 30.6162 7.51822C30.4514 7.52087 30.2942 7.58856 30.179 7.70653C30.0639 7.82451 30 7.98321 30.0012 8.14808C30.0025 8.31296 30.0689 8.47064 30.1859 8.5868C30.3029 8.70296 30.4611 8.76818 30.626 8.76826H30.6358Z" fill="#FDBD3D"/>
<path d="M19.075 36.8351L32.4191 37.4851V33.8662H19.075V36.8351ZM30.2816 35.0662H30.2878C30.4542 35.0671 30.6134 35.1338 30.7305 35.2519C30.8477 35.3699 30.9133 35.5296 30.9129 35.696C30.9125 35.8623 30.8461 36.0217 30.7283 36.1391C30.6106 36.2566 30.451 36.3226 30.2847 36.3226C30.1184 36.3226 29.9588 36.2566 29.8411 36.1391C29.7233 36.0217 29.657 35.8623 29.6566 35.696C29.6561 35.5296 29.7217 35.3699 29.8389 35.2519C29.9561 35.1338 30.1153 35.0671 30.2816 35.0662Z" fill="#FDBD3D"/>
<path d="M28.8253 14.5903V26.172C28.8244 26.8348 28.5607 27.4702 28.0921 27.9388C27.6234 28.4075 26.988 28.6712 26.3252 28.6721H23.2814C22.7579 28.6709 22.2562 28.4625 21.886 28.0924C21.5159 27.7222 21.3074 27.2205 21.3063 26.697V24.1657C21.3054 23.5824 21.0734 23.0233 20.661 22.6109C20.2486 22.1985 19.6895 21.9664 19.1062 21.9656C18.9156 21.9656 18.7328 22.0413 18.598 22.1761C18.4632 22.3109 18.3875 22.4937 18.3875 22.6843V28.7533C18.3871 29.5196 18.6447 30.2638 19.1187 30.8659L20.5 32.6159H30.9254L32.4317 24.7469C32.6748 23.4499 32.4952 22.1091 31.9192 20.9218L28.8253 14.5903Z" fill="#FDBD3D"/>
<path d="M12.0684 5.01518V26.1721C12.0693 26.5034 12.2013 26.8208 12.4356 27.055C12.6698 27.2892 12.9872 27.4212 13.3184 27.4222H13.8122V3.76514H13.3184C12.9872 3.7661 12.6698 3.89812 12.4356 4.13234C12.2013 4.36655 12.0693 4.68395 12.0684 5.01518Z" fill="#FDBD3D"/>
<path d="M22.5563 24.1659V26.6972C22.5564 26.8894 22.6329 27.0738 22.7688 27.2097C22.9047 27.3456 23.0891 27.422 23.2813 27.4222H26.3252C26.6564 27.4212 26.9738 27.2892 27.208 27.055C27.4422 26.8208 27.5742 26.5034 27.5752 26.1721V5.01518C27.5742 4.68395 27.4422 4.36655 27.208 4.13234C26.9738 3.89812 26.6564 3.7661 26.3252 3.76514H15.0623V27.4222H17.1373V22.6845C17.1383 22.1627 17.3461 21.6625 17.7151 21.2934C18.0841 20.9244 18.5843 20.7167 19.1062 20.7157C20.021 20.7165 20.8981 21.0802 21.5449 21.7271C22.1918 22.3739 22.5555 23.2511 22.5563 24.1659ZM21.5187 5.83396C21.5179 5.75165 21.5335 5.67002 21.5647 5.59383C21.5958 5.51763 21.6418 5.44841 21.7 5.39021C21.7582 5.33201 21.8274 5.28601 21.9036 5.25488C21.9798 5.22376 22.0614 5.20815 22.1437 5.20896H25.5064C25.5885 5.20867 25.6699 5.22465 25.7459 5.25596C25.8218 5.28726 25.8909 5.33329 25.949 5.39138C26.007 5.44948 26.0531 5.51849 26.0844 5.59444C26.1157 5.6704 26.1317 5.7518 26.1314 5.83396V11.2154C26.1309 11.381 26.0649 11.5397 25.9478 11.6568C25.8307 11.7739 25.672 11.8399 25.5064 11.8404H22.1438C22.0616 11.8407 21.9802 11.8247 21.9043 11.7934C21.8283 11.7621 21.7593 11.7161 21.7012 11.658C21.6431 11.5999 21.5971 11.5309 21.5658 11.4549C21.5345 11.3789 21.5185 11.2975 21.5188 11.2154L21.5187 5.83396Z" fill="#FDBD3D"/>
<path d="M22.7688 6.45874H24.8813V10.59H22.7688V6.45874Z" fill="#FDBD3D"/>
</svg>
