<svg width="26" height="34" viewBox="0 0 26 34" fill="none" xmlns="http://www.w3.org/2000/svg">
<path d="M24.7092 16.2633H22.9884V10.5276C22.9884 7.67155 21.9091 5.05129 20.1217 3.13823C18.3387 1.22516 15.8012 -0.00677199 13 2.80079e-05C10.1989 -0.00677199 7.6613 1.22516 5.88173 3.13936C4.09199 5.05242 3.00705 7.67269 3.00705 10.5287V16.2645H1.29084C0.580367 16.2645 0 16.8413 0 17.5531V32.7091C0.00113132 33.422 0.580367 34 1.29084 34H24.7092C25.4196 34 26 33.422 26 32.7069V17.5519C25.9989 16.8402 25.4196 16.2633 24.7092 16.2633ZM14.0691 24.6942V27.5162C14.0691 27.9673 13.7048 28.3333 13.2545 28.3333H12.7443C12.2952 28.3333 11.9298 27.9684 11.9298 27.5162V24.6942C11.3426 24.3338 10.9489 23.6889 10.9489 22.95C10.9489 21.8144 11.8675 20.8953 13 20.8953C14.1325 20.8953 15.0511 21.8144 15.0511 22.95C15.0511 23.6889 14.6563 24.3338 14.0691 24.6942ZM18.2448 16.2633H7.75294V10.5276C7.75294 8.88309 8.38082 7.41882 9.34584 6.38409C10.3222 5.34709 11.5926 4.74756 13 4.74756C14.4074 4.74756 15.6778 5.34709 16.653 6.38409C17.6203 7.41882 18.2448 8.88309 18.2448 10.5276V16.2633Z" fill="#FDBD3D"/>
</svg>
